<svg xmlns="http://www.w3.org/2000/svg" viewBox="0 0 64 64" fill="none">
  <defs>
    <linearGradient id="grad" x1="0%" y1="0%" x2="100%" y2="100%">
      <stop offset="0%" style="stop-color:#6366f1;stop-opacity:1" />
      <stop offset="100%" style="stop-color:#4338ca;stop-opacity:1" />
    </linearGradient>
    <filter id="glow" x="-20%" y="-20%" width="140%" height="140%">
      <feGaussianBlur stdDeviation="2" result="blur" />
      <feComposite in="SourceGraphic" in2="blur" operator="over" />
    </filter>
  </defs>
  
  <!-- Background Container -->
  <rect x="4" y="4" width="56" height="56" rx="16" fill="url(#grad)" />
  
  <!-- Left Brace { -->
  <path d="M24 20 C 20 20, 18 22, 18 26 L 18 28 C 18 30, 16 32, 14 32 C 16 32, 18 34, 18 36 L 18 38 C 18 42, 20 44, 24 44" 
        stroke="white" stroke-width="4" stroke-linecap="round" stroke-linejoin="round" fill="none" />
        
  <!-- Right Brace } -->
  <path d="M40 20 C 44 20, 46 22, 46 26 L 46 28 C 46 30, 48 32, 50 32 C 48 32, 46 34, 46 36 L 46 38 C 46 42, 44 44, 40 44" 
        stroke="white" stroke-width="4" stroke-linecap="round" stroke-linejoin="round" fill="none" />
        
  <!-- Svelte Core Node -->
  <circle cx="32" cy="32" r="5" fill="#FF3E00" filter="url(#glow)" />
</svg>
